<?xml version="1.0" standalone="no"?>
<!DOCTYPE svg PUBLIC "-//W3C//DTD SVG 20010904//EN"
 "http://www.w3.org/TR/2001/REC-SVG-20010904/DTD/svg10.dtd">
<svg version="1.0" xmlns="http://www.w3.org/2000/svg"
 width="508.000000pt" height="208.000000pt" viewBox="0 0 508.000000 208.000000"
 preserveAspectRatio="xMidYMid meet">

<g transform="translate(0.000000,208.000000) scale(0.100000,-0.100000)"
fill="#000000" stroke="none">
<path d="M863 1985 c-234 -65 -410 -212 -503 -419 -70 -154 -70 -357 -1 -511
47 -103 58 -104 226 -29 135 60 136 63 95 190 -25 80 -30 107 -25 147 11 77
40 131 101 186 118 108 233 125 321 48 86 -76 96 -178 36 -395 -33 -123 -37
-149 -38 -262 0 -116 2 -130 30 -198 33 -81 91 -165 118 -170 19 -4 187 87
225 121 29 27 28 51 -8 140 -41 103 -40 171 4 330 47 170 56 217 56 304 0 166
-78 335 -202 436 -81 67 -148 90 -273 93 -75 3 -126 -1 -162 -11z"/>
<path d="M1620 1295 l0 -265 55 0 55 0 0 110 0 110 95 0 95 0 0 -110 0 -110
55 0 55 0 -2 263 -3 262 -52 3 -53 3 0 -105 0 -106 -95 0 -95 0 0 105 0 105
-55 0 -55 0 0 -265z"/>
<path d="M2185 1416 c-37 -17 -80 -62 -94 -99 -15 -40 -14 -151 3 -190 7 -18
29 -47 49 -64 90 -79 238 -38 276 76 19 59 14 152 -12 202 -39 75 -143 110
-222 75z m121 -97 c15 -17 19 -36 19 -96 0 -69 -2 -76 -28 -99 -35 -30 -52
-30 -82 1 -22 21 -25 33 -25 97 0 90 15 118 64 118 21 0 40 -8 52 -21z"/>
<path d="M3173 1411 c-27 -17 -33 -18 -43 -5 -8 8 -30 14 -56 14 l-44 0 0
-195 0 -195 50 0 50 0 0 128 c0 144 10 175 53 180 52 6 57 -7 57 -164 l0 -144
50 0 50 0 0 128 c0 150 9 175 60 180 54 5 60 -11 60 -170 l0 -138 51 0 50 0
-3 170 c-3 168 -3 170 -29 196 -40 39 -103 44 -152 10 -21 -14 -40 -26 -44
-26 -3 0 -18 11 -35 25 -36 30 -81 32 -125 6z"/>
<path d="M3700 1408 c-35 -18 -48 -31 -58 -61 -6 -22 -10 -43 -6 -48 3 -5 25
-9 49 -9 37 0 44 3 49 25 7 29 45 42 75 25 15 -8 21 -20 21 -45 l0 -35 -50 0
c-92 0 -153 -41 -165 -111 -9 -50 11 -89 55 -112 39 -20 99 -16 138 9 20 13
23 13 28 -1 4 -11 21 -15 58 -15 l51 0 -3 152 c-2 90 -8 163 -15 178 -16 33
-91 70 -142 70 -22 0 -61 -10 -85 -22z m130 -238 c0 -35 -31 -70 -62 -70 -25
0 -58 27 -58 47 0 27 39 53 80 53 38 0 40 -2 40 -30z"/>
<path d="M4155 1410 c-26 -17 -31 -18 -46 -4 -11 10 -31 14 -56 12 l-38 -3 -3
-192 -2 -193 50 0 50 0 0 128 c0 150 9 175 60 180 54 5 60 -11 60 -170 l0
-138 51 0 50 0 -3 171 -3 171 -33 29 c-39 35 -92 39 -137 9z"/>
<path d="M2450 1409 c0 -5 16 -74 36 -152 20 -78 41 -161 47 -184 l10 -43 53
0 52 0 25 106 c14 58 29 110 34 115 5 5 20 -39 37 -106 l28 -115 53 0 52 0 48
183 c26 100 48 187 49 192 0 6 -21 10 -49 10 l-49 0 -16 -80 c-23 -113 -29
-135 -39 -135 -4 0 -18 50 -31 110 l-23 111 -51 -3 -51 -3 -22 -80 c-12 -44
-24 -92 -27 -107 -7 -30 -26 -39 -26 -12 0 8 -10 58 -22 110 l-21 94 -49 0
c-27 0 -48 -5 -48 -11z"/>
<path d="M4360 1412 c0 -5 17 -56 39 -113 21 -57 51 -144 67 -192 l29 -89 -28
-24 c-16 -13 -39 -24 -53 -24 -21 0 -24 -4 -24 -40 l0 -40 43 0 c47 0 97 26
122 63 16 25 155 431 155 454 0 9 -16 13 -50 13 -59 0 -58 0 -91 -140 -11 -47
-24 -89 -29 -94 -5 -5 -16 16 -25 50 -9 33 -24 86 -33 119 l-17 60 -53 3 c-28
2 -52 -1 -52 -6z"/>
<path d="M1620 616 l0 -266 48 0 c26 0 53 5 59 11 8 8 17 7 34 -5 34 -23 99
-20 140 7 19 12 44 42 57 67 20 39 23 56 20 125 -6 124 -55 185 -149 185 -22
0 -53 -7 -69 -15 l-29 -15 -3 82 -3 83 -52 3 -53 3 0 -265z m233 12 c26 -30
24 -137 -4 -172 -43 -55 -112 -24 -124 56 -16 111 66 187 128 116z"/>
<path d="M2040 615 l0 -265 50 0 50 0 0 265 0 265 -50 0 -50 0 0 -265z"/>
<path d="M2295 726 c-59 -26 -94 -91 -95 -176 -1 -131 69 -210 185 -210 85 0
145 52 164 142 22 102 -13 204 -81 239 -44 22 -128 25 -173 5z m137 -97 c27
-36 27 -142 0 -178 -25 -34 -71 -39 -98 -10 -15 17 -19 36 -19 99 0 63 4 82
19 99 27 29 73 24 98 -10z"/>
<path d="M2669 713 c-17 -15 -38 -42 -45 -60 -20 -48 -18 -180 4 -223 34 -69
121 -100 182 -65 35 20 40 19 40 -13 0 -57 -72 -89 -120 -53 -34 25 -98 29
-106 6 -16 -42 74 -105 151 -105 49 0 111 28 145 64 l25 28 0 221 0 222 -33 3
c-20 2 -41 -3 -50 -12 -15 -13 -20 -13 -36 0 -11 8 -43 14 -72 14 -42 0 -59
-5 -85 -27z m154 -73 c50 -40 44 -168 -8 -192 -32 -14 -72 -3 -86 24 -16 30
-15 134 2 154 12 14 43 32 60 33 4 1 18 -8 32 -19z"/>
<path d="M1390 582 c-98 -52 -87 -196 17 -230 153 -50 245 163 100 231 -45 22
-74 21 -117 -1z"/>
</g>
</svg>
